<?xml version="1.0" encoding="UTF-8"?>
<svg width="512" height="336" viewBox="0 0 512 336" fill="none" xmlns="http://www.w3.org/2000/svg" role="img" aria-labelledby="title desc">
  <title id="title">U&amp;U Movers logo</title>
  <desc id="desc">Vector logo with a red house roof icon, red U&amp;U wordmark, and black italic Movers text.</desc>
  <g id="logo">
    <!-- House chimney -->
    <path d="M356 68 H383 V107 H356 Z" fill="#B71C1C"/>
    <!-- House roof / eaves -->
    <path d="M58 137 L256 31 L454 137 H435 L256 52 L77 137 Z" fill="#B71C1C"/>
    <!-- Window -->
    <g fill="#B71C1C">
      <rect x="236" y="83" width="16" height="16" rx="1"/>
      <rect x="260" y="83" width="16" height="16" rx="1"/>
      <rect x="236" y="107" width="16" height="16" rx="1"/>
      <rect x="260" y="107" width="16" height="16" rx="1"/>
    </g>
    <!-- Wordmark converted to outlines for portability -->
    <path id="u-and-u" d="M12.4,98.42 L37.78,98.42 L37.78,39.42 Q37.78,27.23 41.77,21.98 Q45.75,16.75 54.78,16.75 Q63.87,16.75 67.86,21.98 Q71.85,27.23 71.85,39.42 L71.85,98.42 L97.22,98.42 L97.22,39.42 Q97.22,18.52 86.74,8.29 Q76.28,-1.92 54.78,-1.92 Q33.35,-1.92 22.87,8.29 Q12.4,18.52 12.4,39.42 L12.4,98.42 Z M162.29,65.33 L189.25,35.67 Q192.75,40.27 194.57,46.01 Q196.38,51.74 196.7,59 L217.2,59 Q216.21,47 212.54,37.63 Q208.89,28.29 202.37,21.22 L221.69,0 L193.74,0 L187.27,7.19 Q180.35,2.57 172.69,0.32 Q165.06,-1.92 156.49,-1.92 Q139.15,-1.92 128.44,7.21 Q117.72,16.35 117.72,30.78 Q117.72,40.42 122.43,47.82 Q127.15,55.24 137.85,62.23 Q135.06,65.73 133.73,69.21 Q132.42,72.71 132.42,76.53 Q132.42,87.29 140.8,93.74 Q149.17,100.2 163.07,100.2 Q169.08,100.2 175.56,99.23 Q182.06,98.28 189.12,96.38 L189.12,78.05 Q182.92,81.21 177.37,82.73 Q171.85,84.25 166.57,84.25 Q161.49,84.25 158.69,82.29 Q155.9,80.35 155.9,76.8 Q155.9,74.55 157.5,71.68 Q159.13,68.83 162.29,65.33 Z M149.17,48.98 Q144.89,45.88 142.72,41.96 Q140.55,38.03 140.55,33.35 Q140.55,25.78 146.13,20.44 Q151.75,15.1 159.59,15.1 Q164,15.1 167.82,16.45 Q171.66,17.8 174.95,20.5 L149.17,48.98 Z M239.75,98.42 L265.13,98.42 L265.13,39.42 Q265.13,27.23 269.12,21.98 Q273.1,16.75 282.13,16.75 Q291.22,16.75 295.21,21.98 Q299.2,27.23 299.2,39.42 L299.2,98.42 L324.57,98.42 L324.57,39.42 Q324.57,18.52 314.09,8.29 Q303.63,-1.92 282.13,-1.92 Q260.7,-1.92 250.22,8.29 Q239.75,18.52 239.75,39.42 L239.75,98.42 Z" fill="#B71C1C" transform="translate(87.512,250.195) scale(1,-1)"/>
    <path id="movers" d="M11.42,51.03 L27.58,51.03 L34.15,23.93 L51.37,51.03 L68.18,51.03 L58.24,0 L45.76,0 L53.05,37.67 L35.34,9.81 L28.26,9.81 L21.23,37.67 L13.95,0 L1.47,0 L11.42,51.03 Z M95.91,30.45 Q91.16,30.45 88.08,26.14 Q85,21.84 85,15.18 Q85,11.55 86.66,9.65 Q88.32,7.75 91.5,7.75 Q96.25,7.75 99.32,12.07 Q102.41,16.41 102.41,23.11 Q102.41,26.7 100.74,28.57 Q99.09,30.45 95.91,30.45 Z M96.9,39.2 Q105.45,39.2 110.33,34.86 Q115.22,30.53 115.22,23.03 Q115.22,18.69 113.68,14.61 Q112.14,10.53 109.21,7.14 Q105.72,3.11 100.96,1.05 Q96.21,-1 90.37,-1 Q81.93,-1 77.05,3.35 Q72.18,7.69 72.18,15.18 Q72.18,19.48 73.76,23.59 Q75.33,27.72 78.28,31.14 Q81.69,35.1 86.43,37.14 Q91.16,39.2 96.9,39.2 Z M122.16,38.28 L133.43,38.28 L138.4,11.55 L152.81,38.28 L165.23,38.28 L142.73,0 L129.78,0 L122.16,38.28 Z M207.4,17.71 L207,15.76 L178.35,15.76 Q178.35,15.55 178.32,15.16 Q178.29,14.77 178.29,14.56 Q178.29,10.84 180.52,8.99 Q182.76,7.14 187.23,7.14 Q191.09,7.14 195.38,8.3 Q199.68,9.47 204.39,11.76 L202.51,2.25 Q198.04,0.61 193.61,-0.19 Q189.18,-1 184.61,-1 Q175.65,-1 170.77,3.14 Q165.91,7.28 165.91,14.83 Q165.91,19.21 167.46,23.32 Q169.02,27.44 172,30.87 Q175.51,34.97 180.41,37.08 Q185.32,39.2 191.3,39.2 Q199.07,39.2 203.63,35.07 Q208.19,30.93 208.19,23.93 Q208.19,22.56 208,21.03 Q207.82,19.51 207.4,17.71 Z M195.85,23.31 Q195.95,23.76 196.01,24.22 Q196.06,24.67 196.06,25.12 Q196.06,27.86 194.42,29.47 Q192.78,31.07 189.97,31.07 Q186.38,31.07 183.86,29.1 Q181.36,27.14 180.03,23.31 L195.85,23.31 Z M246.85,27.86 Q245.58,28.58 244.04,28.95 Q242.51,29.32 240.72,29.32 Q236.04,29.32 232.95,26.32 Q229.86,23.31 228.77,17.64 L225.28,0 L213.01,0 L220.46,38.28 L232.76,38.28 L231.43,31.72 Q233.86,35.34 237.5,37.26 Q241.14,39.2 245.58,39.2 Q246.23,39.2 247.05,39.13 Q247.87,39.07 249,38.93 L246.85,27.86 Z M284.58,37.09 L282.77,27.58 Q279.18,29.29 275.63,30.18 Q272.07,31.07 268.89,31.07 Q265.27,31.07 263.3,30.13 Q261.33,29.19 261.33,27.44 Q261.33,26.42 262.43,25.8 Q263.52,25.19 266.74,24.51 L268.96,24.1 Q276.37,22.52 279.35,20.04 Q282.32,17.57 282.32,13.16 Q282.32,6.5 277.09,2.75 Q271.87,-1 262.47,-1 Q258.53,-1 254.43,-0.37 Q250.33,0.24 246.07,1.47 L247.9,11.08 Q251.22,9.12 254.99,8.13 Q258.77,7.14 262.74,7.14 Q266.61,7.14 268.55,8.06 Q270.5,8.99 270.5,10.76 Q270.5,12 269.41,12.68 Q268.31,13.37 264.89,14.09 L262.67,14.49 Q256.11,15.86 253.31,18.53 Q250.51,21.2 250.51,25.91 Q250.51,32.3 255.34,35.74 Q260.17,39.2 269.17,39.2 Q273.09,39.2 276.9,38.67 Q280.72,38.15 284.58,37.09 Z" fill="#111111" transform="translate(112.979,306.034) scale(1,-1)"/>
    <!-- Decorative underline marks -->
    <path d="M74 314 H111" stroke="#111111" stroke-width="4" stroke-linecap="square"/>
    <path d="M404 314 H441" stroke="#111111" stroke-width="4" stroke-linecap="square"/>
  </g>
</svg>
